<?xml version="1.0" encoding="utf-8"?>
<!-- Generator: Adobe Illustrator 23.0.0, SVG Export Plug-In . SVG Version: 6.00 Build 0)  -->
<svg version="1.1" id="Layer_1" xmlns="http://www.w3.org/2000/svg" xmlns:xlink="http://www.w3.org/1999/xlink" x="0px" y="0px"
	 viewBox="0 0 30 30" style="enable-background:new 0 0 30 30;" xml:space="preserve">
<style type="text/css">
	.st0{fill:#4D5BED;}
	.st1{fill:#7AC8F4;}
</style>
<g>
	<path class="st0" d="M23,19.5c-2.2,0-5,1.4-5.8,2.4c-0.5,0.6,0,1.6,0.8,1.6h10c0.8,0,1.3-0.9,0.8-1.6C28,20.9,25.2,19.5,23,19.5z"
		/>
	<path class="st0" d="M7,19.5c-2.2,0-5,1.4-5.8,2.4c-0.5,0.7,0,1.6,0.8,1.6h10c0.8,0,1.3-0.9,0.8-1.6C12,20.9,9.2,19.5,7,19.5z"/>
	<circle class="st1" cx="23" cy="14.5" r="3"/>
	<circle class="st1" cx="7" cy="14.5" r="3"/>
	<circle class="st1" cx="15" cy="9.5" r="3"/>
</g>
</svg>
