<?xml version="1.0" encoding="utf-8"?>
<!-- Generator: Adobe Illustrator 23.0.0, SVG Export Plug-In . SVG Version: 6.00 Build 0)  -->
<svg version="1.1" id="two_x5F_tone" xmlns="http://www.w3.org/2000/svg" xmlns:xlink="http://www.w3.org/1999/xlink" x="0px"
	 y="0px" viewBox="0 0 24 24" style="enable-background:new 0 0 24 24;" xml:space="preserve">
<style type="text/css">
	.st0{fill:#4D5BED;}
	.st1{fill:#7AC8F4;}
</style>
<g>
	<path class="st0" d="M9,10v4H5v-4H9 M11,8H5c-1.1,0-2,0.9-2,2v4c0,1.1,0.9,2,2,2h6V8L11,8z"/>
</g>
<rect x="7" y="14" class="st0" width="2" height="7"/>
<path class="st1" d="M22,12c0-0.7-0.4-1.4-1-1.7V3h-2l-1,2L9,8v8l9,3l1,2h2v-7.3C21.6,13.4,22,12.7,22,12z M19,17.2l-0.4-0.1
	L11,14.6V9.4l7.6-2.5L19,6.8V17.2z"/>
</svg>
