<?xml version="1.0" encoding="utf-8"?>
<!-- Generator: Adobe Illustrator 23.0.0, SVG Export Plug-In . SVG Version: 6.00 Build 0)  -->
<svg version="1.1" id="Layer_1" xmlns="http://www.w3.org/2000/svg" xmlns:xlink="http://www.w3.org/1999/xlink" x="0px" y="0px"
	 viewBox="0 0 24 24" style="enable-background:new 0 0 24 24;" xml:space="preserve">
<style type="text/css">
	.st0{fill:#5DCBFA;}
	.st1{fill:#4A5CF6;}
</style>
<g>
	<path class="st0" d="M18,11c0.7,0,1.4,0.1,2,0.3c-0.1-4-3.4-7.3-7.5-7.3C9.6,4,7.1,5.6,5.9,8C2.6,8.1,0,10.7,0,14s2.7,6,6,6h5.3
		c-0.2-0.6-0.3-1.3-0.3-2C11,14.1,14.1,11,18,11z"/>
	<path class="st1" d="M22.2,20.8C22.7,20,23,19,23,18c0-2.8-2.2-5-5-5c-2.7,0-5,2.3-5,5c0,2.8,2.2,5,5,5c1,0,2-0.3,2.8-0.8l1.5,1.5
		c0.4,0.4,1,0.4,1.4,0s0.4-1,0-1.4L22.2,20.8z M18,21c-1.7,0-3-1.3-3-3s1.3-3,3-3s3,1.3,3,3S19.7,21,18,21z"/>
</g>
</svg>
