<?xml version="1.0" encoding="utf-8"?>
<!-- Generator: Adobe Illustrator 23.0.0, SVG Export Plug-In . SVG Version: 6.00 Build 0)  -->
<svg version="1.1" id="Layer_1" xmlns="http://www.w3.org/2000/svg" xmlns:xlink="http://www.w3.org/1999/xlink" x="0px" y="0px"
	 viewBox="0 0 23 19" style="enable-background:new 0 0 23 19;" xml:space="preserve">
<style type="text/css">
	.st0{fill:#4A5CF6;}
	.st1{fill:#5DCBFA;}
</style>
<g id="Desing">
	<g id="design" transform="translate(-403.000000, -5093.000000)">
		<g id="Testomonila" transform="translate(0.000000, 4219.000000)">
			<g id="Symbols--Copy-4" transform="translate(375.000000, 844.888857)">
				<g id="Group-2" transform="translate(28.000000, 30.000000)">
					<path id="_x201C_" class="st0" d="M9.4,0C2.6,0.5,0,4.3,0,9.4v5.9c0,1.1,0.9,2,2,2h5.4c1.1,0,2-0.9,2-2v-4.9c0-1.1-0.9-2-2-2
						H6.3c0-2.5,0.1-3.7,3.1-4.2V0z"/>
					<path id="Path" class="st1" d="M22.2,0c-6.8,0.5-9.4,4.3-9.4,9.4v5.9c0,1.1,0.9,2,2,2h5.4c1.1,0,2-0.9,2-2v-4.9
						c0-1.1-0.9-2-2-2h-1.1c0-2.5,0.1-3.7,3.1-4.2V0z"/>
				</g>
			</g>
		</g>
	</g>
</g>
</svg>
