<?xml version="1.0" encoding="utf-8"?>
<!-- Generator: Adobe Illustrator 23.0.0, SVG Export Plug-In . SVG Version: 6.00 Build 0)  -->
<svg version="1.1" id="Layer_1" xmlns="http://www.w3.org/2000/svg" xmlns:xlink="http://www.w3.org/1999/xlink" x="0px" y="0px"
	 viewBox="0 0 24 24" style="enable-background:new 0 0 24 24;" xml:space="preserve">
<style type="text/css">
	.st0{fill:#4D5BED;}
	.st1{fill:#7AC8F4;}
</style>
<g>
	<rect x="10" y="7" class="st0" width="2" height="2"/>
	<rect x="10" y="11" class="st0" width="2" height="2"/>
	<rect x="16" y="11" class="st1" width="2" height="2"/>
	<rect x="16" y="15" class="st1" width="2" height="2"/>
	<path class="st1" d="M20,7h-4v2h4v10h-4v2h6V9C22,7.9,21.1,7,20,7z"/>
	<rect x="6" y="15" class="st0" width="2" height="2"/>
	<rect x="10" y="15" class="st0" width="2" height="2"/>
	<path class="st0" d="M16,17v-2v-2v-2V9V7V5c0-1.1-0.9-2-2-2H4C2.9,3,2,3.9,2,5v16h14v-2V17z M4,5h10v14H4"/>
	<rect x="6" y="11" class="st0" width="2" height="2"/>
	<rect x="6" y="7" class="st0" width="2" height="2"/>
</g>
</svg>
