<?xml version="1.0" encoding="utf-8"?>
<!-- Generator: Adobe Illustrator 23.0.0, SVG Export Plug-In . SVG Version: 6.00 Build 0)  -->
<svg version="1.1" id="Layer_1" xmlns="http://www.w3.org/2000/svg" xmlns:xlink="http://www.w3.org/1999/xlink" x="0px" y="0px"
	 viewBox="0 0 32 32" style="enable-background:new 0 0 32 32;" xml:space="preserve">
<style type="text/css">
	.st0{fill:#4D5BED;}
	.st1{fill:#7AC8F4;}
</style>
<g>
	<path class="st0" d="M16,3C10,3,5,8,5,14v6c0,1.3,0.8,2.4,2,2.8c0,0,1.4,0.2,2,0.2h2v-9H7c0-5,4-9,9-9s9,4,9,9h-4v9h3
		c1.6,0,3-1.4,3-3v-6C27,8,22,3,16,3z M9,16v5H8c-0.6,0-1-0.4-1-1v-4H9z M25,20c0,0.6-0.4,1-1,1h-1v-5h2V20z"/>
	<path class="st1" d="M7,23c0,2.7,2.3,5,5,5h1.3c0.3,0.6,1,1,1.7,1h2c1.1,0,2-0.9,2-2s-0.9-2-2-2h-2c-0.7,0-1.4,0.4-1.7,1H12
		c-1.7,0-3-1.3-3-3c-0.6,0-2-0.2-2-0.2V23z"/>
</g>
</svg>
