<?xml version="1.0" encoding="utf-8"?>
<!-- Generator: Adobe Illustrator 23.0.0, SVG Export Plug-In . SVG Version: 6.00 Build 0)  -->
<svg version="1.1" id="Layer_1" xmlns="http://www.w3.org/2000/svg" xmlns:xlink="http://www.w3.org/1999/xlink" x="0px" y="0px"
	 viewBox="0 0 24 24" style="enable-background:new 0 0 24 24;" xml:space="preserve">
<style type="text/css">
	.st0{fill:#5DCBFA;}
	.st1{fill:#4A5CF6;}
</style>
<g>
	<path class="st0" d="M3.6,16.7C3.8,16.9,4,17,4.3,17h4.3c0.3,0,0.5-0.1,0.7-0.3l2.3-2.5C11.7,14,11.9,14,12,14s0.3,0,0.4,0.1
		l2.3,2.5c0.2,0.2,0.5,0.3,0.7,0.3h4.2c0.3,0,0.5-0.1,0.7-0.3c0.7-0.7,1.3-1.4,1.6-2.5c0.2-0.6-0.3-1.2-1-1.2h-2c0,0,0.9-1.8,1-4.5
		C20,8.2,19.8,8,19.5,8l0,0c-2.7,0.2-4.5,2-4.5,2s0-3.9-2.6-6.8C12.3,3.1,12.1,3,12,3s-0.3,0.1-0.4,0.2C9,6.1,9,10,9,10
		S7.2,8.2,4.5,8l0,0C4.2,8,4,8.2,4,8.5C4.1,11.2,5,13,5,13H3c-0.6,0-1.1,0.6-1,1.2C2.3,15.3,2.9,16,3.6,16.7z"/>
	<path class="st1" d="M19,19H5c-0.6,0-1,0.4-1,1s0.4,1,1,1h14c0.6,0,1-0.4,1-1S19.6,19,19,19z"/>
</g>
</svg>
