<?xml version="1.0" encoding="utf-8"?>
<!-- Generator: Adobe Illustrator 23.0.0, SVG Export Plug-In . SVG Version: 6.00 Build 0)  -->
<svg version="1.1" id="Layer_1" xmlns="http://www.w3.org/2000/svg" xmlns:xlink="http://www.w3.org/1999/xlink" x="0px" y="0px"
	 viewBox="0 0 24 24" style="enable-background:new 0 0 24 24;" xml:space="preserve">
<style type="text/css">
	.st0{fill:#4D5BED;}
	.st1{fill:#7AC8F4;}
</style>
<g>
	<path class="st0" d="M8,13c-3,0-7,1.5-7,3.5V18c0,0.6,0.4,1,1,1h12c0.6,0,1-0.4,1-1v-1.5C15,14.5,11,13,8,13z"/>
	<path class="st0" d="M16,13c-0.3,0-0.6,0-1,0.1c1.2,0.9,2,2,2,3.4V19h5c0.6,0,1-0.4,1-1v-1.5C23,14.5,19,13,16,13z"/>
	<circle class="st1" cx="16" cy="8" r="3"/>
	<circle class="st1" cx="8" cy="8" r="3"/>
</g>
</svg>
