<?xml version="1.0" encoding="utf-8"?>
<!-- Generator: Adobe Illustrator 23.0.0, SVG Export Plug-In . SVG Version: 6.00 Build 0)  -->
<svg version="1.1" id="Layer_1" xmlns="http://www.w3.org/2000/svg" xmlns:xlink="http://www.w3.org/1999/xlink" x="0px" y="0px"
	 viewBox="0 0 24 24" style="enable-background:new 0 0 24 24;" xml:space="preserve">
<style type="text/css">
	.st0{fill:#4A5CF6;}
	.st1{fill:#5DCBFA;}
</style>
<g>
	<path class="st0" d="M20,18L20,18H6V4c0-0.6-0.4-1-1-1l0,0C4.4,3,4,3.4,4,4v14c0,1.1,0.9,2,2,2h14c0.6,0,1-0.4,1-1
		C21,18.5,20.6,18,20,18z"/>
	<path class="st1" d="M20,6c-0.3,0-0.5,0.1-0.7,0.3L16,9.6l-2.3-2.3c-0.4-0.4-1-0.4-1.4,0l-5,5c-0.4,0.4-0.4,1,0,1.4s1,0.4,1.4,0
		l0,0L13,9.4l2.3,2.3c0.4,0.4,1,0.4,1.4,0l4-4c0.4-0.4,0.4-1,0-1.4C20.5,6.1,20.3,6,20,6z"/>
</g>
</svg>
